<?xml version="1.0" standalone="no"?>
<!DOCTYPE svg PUBLIC "-//W3C//DTD SVG 1.1//EN" "http://www.w3.org/Graphics/SVG/1.1/DTD/svg11.dtd" >
<svg xmlns="http://www.w3.org/2000/svg">
<metadata>
Created by FontForge 20120731 at Mon Oct 24 21:30:56 2016
 By admin
</metadata>
<defs>
<font id="iconfont" horiz-adv-x="1024" >
  <font-face 
    font-family="iconfont"
    font-weight="500"
    font-stretch="normal"
    units-per-em="1024"
    panose-1="2 0 6 3 0 0 0 0 0 0"
    ascent="896"
    descent="-128"
    x-height="792"
    bbox="-0.0571429 -164.059 1353 896"
    underline-thickness="50"
    underline-position="-100"
    unicode-range="U+0078-E8C8"
  />
<missing-glyph horiz-adv-x="374" 
d="M34 0v682h272v-682h-272zM68 34h204v614h-204v-614z" />
    <glyph glyph-name=".notdef" horiz-adv-x="374" 
d="M34 0v682h272v-682h-272zM68 34h204v614h-204v-614z" />
    <glyph glyph-name=".null" horiz-adv-x="0" 
 />
    <glyph glyph-name="nonmarkingreturn" horiz-adv-x="341" 
 />
    <glyph glyph-name="x" unicode="x" horiz-adv-x="1001" 
d="M281 543q-27 -1 -53 -1h-83q-18 0 -36.5 -6t-32.5 -18.5t-23 -32t-9 -45.5v-76h912v41q0 16 -0.5 30t-0.5 18q0 13 -5 29t-17 29.5t-31.5 22.5t-49.5 9h-133v-97h-438v97zM955 310v-52q0 -23 0.5 -52t0.5 -58t-10.5 -47.5t-26 -30t-33 -16t-31.5 -4.5q-14 -1 -29.5 -0.5
t-29.5 0.5h-32l-45 128h-439l-44 -128h-29h-34q-20 0 -45 1q-25 0 -41 9.5t-25.5 23t-13.5 29.5t-4 30v167h911zM163 247q-12 0 -21 -8.5t-9 -21.5t9 -21.5t21 -8.5q13 0 22 8.5t9 21.5t-9 21.5t-22 8.5zM316 123q-8 -26 -14 -48q-5 -19 -10.5 -37t-7.5 -25t-3 -15t1 -14.5
t9.5 -10.5t21.5 -4h37h67h81h80h64h36q23 0 34 12t2 38q-5 13 -9.5 30.5t-9.5 34.5q-5 19 -11 39h-368zM336 498v228q0 11 2.5 23t10 21.5t20.5 15.5t34 6h188q31 0 51.5 -14.5t20.5 -52.5v-227h-327z" />
    <glyph glyph-name="uniE600" unicode="&#xe600;" 
d="M821 587l-1 1q0 1 -1 1q-1 1 -3.5 2t-3.5 1l-3 2q-46 23 -95 29q-37 56 -96.5 88.5t-126.5 32.5q-91 0 -162 -54.5t-95 -141.5q-2 0 -9 -3q-7 -2 -8 -3q-68 -27 -110 -87q-5 -8 -11 -17v-1l-1 -1l-8 -16l-2 -3q-3 -8 -6 -17h-1v-2q-15 -40 -15 -83q0 -101 71 -172.5
t171 -71.5h381q113 0 193 81t80 196q0 75 -37.5 139t-100.5 100zM686 122h-381q-79 0 -135.5 56.5t-56.5 136.5q0 48 23 90l2 5q6 11 14 22q1 0 2.5 2t1.5 3q7 9 17 18l5 5q10 9 20 16q3 1 5 3q13 8 24 13l3 1q16 7 30 10q37 9 73 4q10 -1 18.5 5t10 16.5t-5 18.5t-16.5 10
q-24 4 -50 2q25 61 79.5 97.5t121.5 36.5q95 0 160 -71q-23 -4 -40 -8q-109 -32 -164 -132q-5 -9 -2 -19t12 -15q5 -3 12 -3q14 0 22 13q45 82 134 107q34 10 71 8h1h1q89 -5 150.5 -70t61.5 -155q0 -94 -66 -160t-158 -66zM686 122zM433 -37q-7 0 -12 -5t-5 -12v-8
q0 -7 5 -12t12 -5h43l-22 -37q-3 -6 -1.5 -13t7.5 -10l7 -4q6 -4 13 -2t10 8l22 37l21 -37q3 -6 10 -8t13 2l7 4q6 3 7.5 10t-1.5 13l-22 37h43q7 0 12 5t5 12v8q0 7 -5 12t-12 5h-43l22 38q3 6 1.5 12.5t-7.5 10.5l-7 4q-6 3 -13 1.5t-10 -7.5l-21 -38l-22 38q-3 6 -10 7.5
t-13 -1.5l-7 -4q-6 -4 -7.5 -10.5t1.5 -12.5l22 -38h-43v0z" />
    <glyph glyph-name="uniE614" unicode="&#xe614;" 
d="M201 91q-3 0 -5.5 -2.5t-2.5 -5.5v-4q0 -8 8 -8h21l-11 -18q-4 -7 3 -11l4 -2q7 -4 11 3l10 18l10 -18q4 -7 11 -3l3 2q7 4 3 11l-10 18h20q8 0 8 8v4q0 8 -8 8h-20l10 17q4 7 -3 11l-3 2q-7 4 -11 -3l-10 -18l-10 18q-4 7 -11 3l-4 -2q-7 -4 -3 -11l11 -17h-21zM643 82
q-5 0 -8.5 -3.5t-3.5 -7.5v-5q0 -5 3.5 -8t8.5 -3h28l-14 -25q-6 -9 4 -15l4 -3q10 -5 15 4l14 25l14 -24q6 -10 16 -5l4 3q10 6 4 15l-14 25h28q5 0 8 3t3 8v5q0 4 -3 7.5t-8 3.5h-28l14 24q6 10 -4 15l-4 3q-10 5 -16 -4l-14 -25l-14 25q-5 9 -15 4l-4 -3q-10 -5 -4 -15
l14 -24h-28zM738 660q-18 0 -35 -3q-39 50 -94.5 77.5t-118.5 27.5q-96 0 -169 -59t-94 -151q-66 -5 -112.5 -52t-46.5 -111q0 -68 50.5 -116.5t122.5 -48.5h33v66h-33q-44 0 -75 29t-31 69q0 41 31 69t75 28h11q20 -1 29 7q3 3 5 8.5t2 9.5l1 5q8 77 65.5 128.5t135.5 51.5
q48 0 90.5 -21t70.5 -59q1 -1 1.5 -2t1.5 -1q3 -6 5 -8q2 -3 2 -4q7 -10 17.5 -13.5t21.5 -0.5q17 6 39 7q62 0 106 -44.5t44 -106.5q0 -94 -72 -131q-19 -10 -41 -15v-68q37 6 69 22q111 56 111 192q0 90 -64 154t-154 64zM617 372q-12 7 -25 3.5t-20 -15.5l-177 -304
q-7 -12 -3.5 -25.5t15.5 -19.5q8 -5 17 -5q19 0 28 17l177 304q7 11 3.5 24.5t-15.5 20.5z" />
    <glyph glyph-name="uniE615" unicode="&#xe615;" 
d="M226 46q11 -4 21 0.5t14 14.5q5 11 5.5 38.5t-5.5 31.5q-6 2 -25.5 -18.5t-23.5 -31.5q-4 -10 0 -20.5t14 -14.5v0zM668 24q15 -5 29 1t20 20q7 16 7.5 54.5t-8.5 43.5q-8 4 -35 -25t-34 -44q-6 -15 0.5 -29.5t20.5 -20.5v0zM739 662q-18 0 -36 -3q-38 50 -94 78t-120 28
q-95 0 -168.5 -59.5t-93.5 -151.5q-67 -5 -113.5 -52t-46.5 -111q0 -69 50.5 -117t122.5 -48h34v65h-34q-44 0 -75 29t-31 70q0 40 31 69t75 29q6 0 12 -1q19 -1 28 7q3 3 5 8.5t3 10.5v4q8 77 66 129t135 52q49 0 91.5 -21t70.5 -60q1 0 2 -1l1 -2q3 -5 5 -7q2 -4 3 -5
q6 -9 17 -13t22 0q17 5 38 6q62 0 106.5 -44.5t44.5 -106.5q0 -94 -73 -131q-18 -10 -41 -15v-69q38 7 70 23q111 56 111 192q0 90 -64 154t-154 64zM617 374q-12 6 -25 2.5t-20 -14.5l-177 -305q-7 -12 -3.5 -25.5t15.5 -20.5q7 -4 16 -4q19 0 29 16l177 305q7 12 3.5 25.5
t-15.5 20.5z" />
    <glyph glyph-name="uniE616" unicode="&#xe616;" 
d="M199 35q-2 0 -5 1q-9 2 -13.5 10t-2.5 17l28 108q3 9 10.5 13.5t16.5 2t13.5 -10t2.5 -16.5l-28 -108q-5 -17 -22 -17v0zM337 35q-3 0 -6 1q-9 2 -13.5 10t-1.5 17l27 108q3 9 10.5 13.5t16.5 2t13.5 -10t2.5 -16.5l-28 -108q-4 -17 -21 -17v0zM474 35q-3 0 -6 1
q-8 2 -13 10t-2 17l28 108q2 9 9.5 13.5t16.5 2t13.5 -10t2.5 -16.5l-28 -108q-4 -17 -21 -17v0zM611 35q-2 0 -5 1q-9 2 -13.5 10t-2.5 17l28 108q2 9 10 13.5t16.5 2t13 -10t2.5 -16.5l-28 -108q-4 -17 -21 -17v0zM748 35q-2 0 -5 1q-9 2 -13.5 10t-2.5 17l28 108
q2 9 10 13.5t16.5 2t13.5 -10t2 -16.5l-28 -108q-4 -17 -21 -17v0zM214 -126q-6 0 -12 2q-14 5 -21.5 19t-2.5 29l18 57q5 15 19 22.5t29 2.5t22 -19t2 -29l-18 -57q-4 -12 -14 -19.5t-22 -7.5v0zM370 -126q-6 0 -12 2q-15 5 -22 19t-3 29l19 57q5 15 19 22.5t28.5 2.5
t22 -19t2.5 -29l-18 -57q-4 -12 -14 -19.5t-22 -7.5v0zM525 -126q-6 0 -11 2q-15 5 -22.5 19t-2.5 29l18 57q5 15 19 22.5t29 2.5t22 -19t3 -29l-19 -57q-4 -12 -14 -19.5t-22 -7.5v0zM681 -126q-5 0 -11 2q-15 5 -22.5 19t-2.5 29l18 57q5 15 19 22.5t29 2.5t22.5 -19
t2.5 -29l-18 -57q-4 -12 -14 -19.5t-23 -7.5v0zM832 292q-9 0 -16 10.5t-7 21.5q0 10 6 18t15 9q64 7 99 40t35 92q0 61 -36.5 99t-97.5 38h-20q-11 0 -22 7.5t-11 16.5v21q0 72 -48 121t-119 49q-44 0 -78 -19q-8 -4 -17.5 3t-15.5 17q-4 8 -1.5 17t11.5 14q48 27 105 27
q90 0 154.5 -64t65.5 -154q79 -1 134.5 -57t55.5 -135q0 -80 -56.5 -136t-135.5 -56zM628 233h-436q-79 0 -135.5 56t-56.5 136q0 79 55.5 135t134.5 57q1 90 65.5 154t154.5 64t154.5 -64t65.5 -154q79 -1 134.5 -57t55.5 -135q0 -80 -56.5 -136t-135.5 -56zM201 570
q-59 0 -100 -41.5t-41 -99.5t41 -99.5t100 -41.5h418q59 0 100 41.5t41 99.5t-41 99.5t-100 41.5h-20q-9 0 -15.5 6.5t-6.5 15.5v20q0 69 -49 118t-118 49t-118 -49t-49 -118v-20q0 -9 -6.5 -15.5t-16.5 -6.5h-19zM201 570z" />
    <glyph glyph-name="uniE618" unicode="&#xe618;" 
d="M140 47q-3 0 -6 1q-8 2 -13 10t-2 16l28 108q2 9 9.5 13.5t16.5 2.5t13.5 -10t2.5 -16l-28 -109q-4 -16 -21 -16v0zM276 47q-2 0 -5 1q-9 2 -13.5 10t-2.5 16l28 108q3 9 10.5 13.5t16 2.5t13.5 -10t2 -16l-27 -109q-5 -16 -22 -16v0zM413 47q-3 0 -5 1q-9 2 -13.5 10
t-2.5 16l28 108q2 9 10 13.5t16.5 2.5t13 -10t2.5 -16l-28 -109q-4 -16 -21 -16v0zM550 47q-3 0 -6 1q-8 2 -13 10t-2 16l28 108q2 9 9.5 13.5t16.5 2.5t13.5 -10t2.5 -16l-28 -109q-4 -16 -21 -16v0zM686 47q-2 0 -5 1q-9 2 -13.5 10t-2.5 16l28 108q2 9 10 13.5t16.5 2.5
t13.5 -10t2 -16l-27 -109q-5 -16 -22 -16v0zM821 47q-3 0 -6 1q-9 2 -13.5 10t-1.5 16l27 108q3 9 10.5 13.5t16.5 2.5t13.5 -10t1.5 -16l-27 -109q-5 -16 -21 -16v0zM154 -127q-5 0 -11 1q-15 5 -22 19t-3 29l19 57q4 15 18 22.5t29 2.5t22 -19t3 -28l-19 -58
q-3 -12 -13 -19t-23 -7v0zM309 -127q-5 0 -11 1q-15 5 -22 19t-3 29l19 57q4 15 18 22.5t29 2.5t22 -19t3 -28l-19 -58q-3 -12 -13 -19t-23 -7v0zM464 -127q-5 0 -11 1q-15 5 -22.5 19t-2.5 29l18 57q5 15 19 22.5t29 2.5t22 -19t2 -28l-18 -58q-4 -12 -14 -19t-22 -7v0z
M620 -127q-6 0 -12 1q-15 5 -22 19t-2 29l18 57q5 15 19 22.5t28.5 2.5t22 -19t2.5 -28l-18 -58q-4 -12 -14 -19t-22 -7v0zM775 -127q-5 0 -11 1q-15 5 -22 19t-3 29l19 57q4 15 18 22.5t29 2.5t22 -19t3 -28l-19 -58q-3 -12 -13 -19t-23 -7v0zM831 295q-9 0 -16 11t-7 21
t6.5 18.5t15.5 9.5q63 6 98 39t35 92q0 61 -36.5 99t-96.5 38h-21q-10 0 -21.5 7.5t-11.5 16.5v21q0 72 -47.5 120.5t-118.5 48.5q-44 0 -78 -19q-8 -4 -17.5 3t-15.5 17q-4 9 -1.5 18t11.5 13q48 27 105 27q90 0 154 -63.5t65 -153.5q79 -1 134.5 -57t55.5 -135
t-56.5 -135.5t-135.5 -56.5zM627 236h-434q-79 0 -135.5 56.5t-56.5 135.5t55.5 135t134.5 57q1 90 65 153.5t154 63.5t154.5 -63.5t65.5 -153.5q78 -1 133.5 -57t55.5 -135t-56 -135.5t-136 -56.5zM201 573q-58 0 -99 -41.5t-41 -99.5t41 -99t99 -41h418q58 0 99.5 41
t41.5 99t-41.5 99.5t-99.5 41.5h-20q-9 0 -15.5 6.5t-6.5 15.5v20q0 69 -49 118t-118 49t-118 -49t-49 -118v-20q0 -9 -6.5 -15.5t-15.5 -6.5h-20zM201 573z" />
    <glyph glyph-name="uniE619" unicode="&#xe619;" 
d="M272 113h-90q-6 0 -10.5 4.5t-4.5 10.5t4.5 10t10.5 4h90q6 0 10.5 -4t4.5 -10t-4.5 -10.5t-10.5 -4.5v0zM250 74q-9 0 -13 7l-45 79q-7 12 5.5 19.5t19.5 -5.5l45 -79q7 -12 -5 -19q-3 -2 -7 -2v0zM204 74q-4 0 -7 2q-12 7 -5 19l45 79q7 13 19.5 5.5t5.5 -19.5l-45 -79
q-4 -7 -13 -7v0zM436 113h-91q-6 0 -10 4.5t-4 10.5t4 10t10 4h91q6 0 10.5 -4t4.5 -10t-4.5 -10.5t-10.5 -4.5v0zM414 74q-9 0 -13 7l-45 79q-8 12 4.5 19.5t20.5 -5.5l45 -79q7 -12 -5 -19q-3 -2 -7 -2v0zM368 74q-4 0 -7 2q-13 7 -5 19l45 79q7 13 19.5 5.5t5.5 -19.5
l-45 -79q-4 -7 -13 -7v0zM600 113h-91q-6 0 -10 4.5t-4 10.5t4 10t10 4h91q6 0 10.5 -4t4.5 -10t-4.5 -10.5t-10.5 -4.5v0zM577 74q-8 0 -12 7l-46 79q-7 12 5.5 19.5t20.5 -5.5l45 -79q7 -12 -5 -19q-4 -2 -8 -2v0zM532 74q-4 0 -7 2q-13 7 -6 19l46 79q7 13 19.5 5.5
t5.5 -19.5l-45 -79q-5 -7 -13 -7v0zM764 113h-91q-6 0 -10 4.5t-4 10.5t4 10t10 4h91q6 0 10 -4t4 -10t-4 -10.5t-10 -4.5v0zM741 74q-8 0 -12 7l-46 79q-7 12 5.5 19.5t19.5 -5.5l46 -79q7 -12 -6 -19q-3 -2 -7 -2v0zM696 74q-4 0 -7 2q-13 7 -6 19l46 79q7 13 19.5 5.5
t5.5 -19.5l-46 -79q-4 -7 -12 -7v0zM335 -48h-124q-8 0 -14 5.5t-6 14t6 14t14 5.5h124q8 0 14 -5.5t6 -14t-6 -14t-14 -5.5v0zM304 -102q-11 0 -17 10l-62 107q-4 8 -2 15.5t9 12t15 2t12 -9.5l62 -107q4 -8 2 -15.5t-9 -12.5q-5 -2 -10 -2v0zM242 -102q-5 0 -10 2
q-7 5 -9 12.5t2 15.5l62 107q4 7 12 9.5t15 -2t9 -12t-2 -15.5l-62 -107q-6 -10 -17 -10v0zM546 -48h-124q-8 0 -14 5.5t-6 14t6 14t14 5.5h124q9 0 14.5 -5.5t5.5 -14t-5.5 -14t-14.5 -5.5v0zM515 -102q-11 0 -17 10l-62 107q-4 7 -2 15t9 12.5t15 2t12 -9.5l63 -107
q4 -8 1.5 -15.5t-9.5 -12.5q-4 -2 -10 -2v0zM453 -102q-5 0 -10 2q-7 5 -9 12.5t2 15.5l62 107q4 7 12 9.5t15 -2t9.5 -12t-1.5 -15.5l-63 -107q-5 -10 -17 -10v0zM764 -48h-124q-8 0 -14 5.5t-6 14t6 14t14 5.5h124q8 0 14 -5.5t6 -14t-6 -14t-14 -5.5v0zM733 -102
q-11 0 -17 10l-62 107q-4 7 -2 15t9 12.5t15 2t12 -9.5l62 -107q4 -8 2 -15.5t-9 -12.5q-5 -2 -10 -2v0zM671 -102q-5 0 -10 2q-7 5 -9 12.5t2 15.5l62 107q4 7 12 9.5t15 -2t9 -12t-2 -15.5l-62 -107q-6 -10 -17 -10v0zM832 268q-9 0 -16 11t-7 21t6 18.5t15 9.5
q64 6 99 39t35 92q0 61 -36.5 99t-97.5 38h-20q-11 0 -22 8t-11 17v21q0 72 -47.5 120.5t-119.5 48.5q-44 0 -78 -19q-8 -4 -17.5 3t-15.5 17q-4 9 -1.5 18t11.5 13q49 27 105 27q90 0 154.5 -63.5t65.5 -153.5q79 -1 134.5 -57.5t55.5 -135.5t-56.5 -135.5t-135.5 -56.5z
M628 209h-436q-79 0 -135.5 56.5t-56.5 135.5t55.5 135.5t134.5 57.5q1 90 65.5 153.5t154.5 63.5t154.5 -63.5t65.5 -153.5q79 -1 134.5 -57.5t55.5 -135.5t-56.5 -135.5t-135.5 -56.5zM201 546q-59 0 -100 -41t-41 -99.5t41 -99.5t100 -41h418q59 0 100 41t41 99.5
t-41 99.5t-100 41h-20q-9 0 -15.5 6.5t-6.5 15.5v20q0 70 -49 119t-118 49t-118 -49t-49 -119v-20q0 -9 -6.5 -15.5t-15.5 -6.5h-20zM201 546z" />
    <glyph glyph-name="uniE620" unicode="&#xe620;" 
d="M451 -38q-3 0 -5 1q-10 2 -14.5 10.5t-2.5 17.5l29 117q3 9 11 14t17.5 2.5t14 -10.5t2.5 -18l-29 -116q-5 -18 -23 -18zM588 -38q-3 0 -6 1q-9 2 -14 10.5t-2 17.5l29 117q3 9 11 14t17.5 2.5t14 -10.5t2.5 -18l-30 -116q-4 -18 -22 -18zM335 125l-56 -71q-7 -8 0 -12
q5 -2 17.5 -8.5t14.5 -7.5q6 -3 6 -6.5t-2 -9.5q-1 -2 -5 -16t-8 -26l-4 -13v-7q3 -1 9 8q5 6 18.5 22.5t24 30.5t12.5 16q8 12 -1 16q-31 11 -32 12q-6 2 -4 9q15 55 17 60q1 7 0 8q-2 1 -7 -5zM171 90l31 20l19 -32l-31 -19zM190 46q-6 0 -10 6l-19 32q-3 4 -1.5 9t5.5 8
l31 19q10 7 17 -4l19 -31q3 -5 1.5 -10t-5.5 -7l-31 -20q-3 -2 -7 -2zM188 86l6 -10l11 6l-7 11zM151 1l32 20l19 -32l-31 -20zM171 -44q-7 0 -10 6l-20 32q-2 5 -1 10t5 7l31 20q5 3 10 1.5t7 -5.5l20 -32q6 -11 -4 -17l-32 -20q-2 -2 -6 -2zM169 -3l6 -11l10 7l-6 10z
M627 154h-435q-79 0 -135.5 56t-56.5 136q0 79 55.5 135t134.5 57q1 90 65 153.5t154.5 63.5t154.5 -63.5t65 -153.5q79 -1 134.5 -57t55.5 -135q0 -80 -56 -136t-136 -56zM200 491q-58 0 -99 -41.5t-41 -99.5t41 -99.5t99 -41.5h419q58 0 99.5 41.5t41.5 99.5t-41.5 99.5
t-99.5 41.5h-20q-9 0 -15.5 6.5t-6.5 15.5v20q0 69 -49 118t-118.5 49t-118.5 -49t-49 -118v-20q0 -10 -6 -16t-16 -6h-20zM832 218q-9 0 -16 11t-7 21t6 18.5t16 9.5q63 6 98 39t35 92q0 61 -36.5 99t-96.5 38h-21q-10 0 -21.5 8t-11.5 17v20q0 73 -47.5 121.5t-119.5 48.5
q-43 0 -78 -19q-7 -4 -17 3t-15 17q-5 8 -2 17t11 14q49 27 105 27q91 0 155 -63.5t65 -154.5q79 -1 134.5 -57t55.5 -135t-56.5 -135.5t-135.5 -56.5z" />
    <glyph glyph-name="uniE622" unicode="&#xe622;" 
d="M518 668q-81 0 -140 19q-32 10 -50 23q-31 22 -31 53.5t31 54.5q19 13 50 23q58 18 140 18q81 0 139 -18q32 -10 50 -23q31 -23 31 -54.5t-31 -53.5q-18 -13 -50 -23q-59 -19 -139 -19zM396 764q10 -3 22 -6q43 -10 100 -10q56 0 100 10q12 3 21 6q-9 3 -21 6
q-44 10 -100 10t-100 -10q-12 -3 -22 -6zM477 -32q-80 0 -138 17q-32 9 -50 22q-32 22 -32 53q0 17 11.5 28.5t28.5 11.5q13 0 23.5 -8t14.5 -20q13 -9 42 -15q44 -10 100 -10q67 0 101 5q29 5 40 12q2 15 13 25.5t27 10.5t27.5 -11.5t11.5 -28.5q0 -36 -29 -58
q-20 -16 -54 -24q-45 -10 -137 -10zM499 469q-127 0 -219 33q-47 17 -74 41q-37 31 -37 70q0 57 73 95q14 8 30 3t23.5 -19.5t2.5 -30t-20 -23.5q-28 -15 -30 -25q1 -2 5.5 -7.5t20.5 -14.5t38 -16q78 -27 187 -27t187 27q22 7 38 16t20.5 14.5t5.5 7.5q-2 10 -30 25
q-15 8 -20 23.5t2.5 30t23.5 19.5t30 -3q73 -38 73 -95q0 -39 -37 -70q-27 -24 -74 -41q-92 -33 -219 -33zM477 120q-143 0 -245 30q-52 15 -82 36q-43 29 -43 70q0 16 11.5 27.5t27.5 11.5t27.5 -10.5t12.5 -25.5q16 -20 85 -38q89 -22 206.5 -22t206.5 22q69 18 85 38
q1 15 12.5 25.5t26.5 10.5q17 0 28.5 -11.5t11.5 -27.5q0 -41 -43 -70q-30 -21 -83 -36q-102 -30 -245 -30zM499 303q-196 0 -337 45q-70 22 -110 52q-52 40 -52 89q0 50 52 89q13 10 29 8t26 -15.5t8 -29.5t-15 -26q-21 -16 -21 -26q0 -7 10 -17t35.5 -23.5t61.5 -25.5
q129 -41 313 -41q183 0 312 41q37 12 62.5 25.5t35 23.5t9.5 17q0 15 -34 35q-14 9 -18 25t4.5 30t24.5 18t30 -5q72 -44 72 -103q0 -49 -51 -89q-41 -30 -111 -53q-141 -44 -336 -44zM212 -47q0 -19 13 -31.5t31.5 -12.5t30.5 13q13 12 13 30.5t-13 30.5q-12 13 -30.5 13
t-31.5 -13q-13 -12 -13 -30zM702 -47q0 -19 12.5 -31.5t31.5 -12.5q18 0 30.5 12.5t12.5 31t-12.5 31t-31 12.5t-30.5 -13q-13 -12 -13 -30zM4 174q0 -18 13 -31t31 -13t31 13t13 31t-13 31t-31 13t-31 -13t-13 -31zM936 261q0 -18 13 -31q13 -12 31 -12t31 12.5t13 30.5
q0 19 -13 31q-13 13 -31 13t-31 -12.5t-13 -31.5zM936 261z" />
    <glyph glyph-name="uniE628" unicode="&#xe628;" horiz-adv-x="1239" 
d="M1169 609q-67 66 -161 72q-23 4 -59 -2q-28 92 -117 154.5t-196 62.5h-1q-64 0 -118 -16.5t-92 -42t-68 -60t-47 -68.5t-27 -71q-19 3 -38 3q-64 0 -121 -31t-92 -84q0 -1 -1 -4q-14 -25 -22 -58.5t-8.5 -75t21 -84.5t64.5 -75q40 -33 114 -33h1h2h203q22 0 37.5 15.5
t15.5 36.5q0 24 -15.5 39t-37.5 15h-203h-4q-37 0 -48 10q-26 20 -36.5 46t-7 50t8.5 39t10 23q40 66 119 66q28 0 43 -9q28 -21 54 -8q30 13 32 44q0 5 1.5 16t8.5 33t17.5 44.5t31 46.5t46.5 43t66.5 31t89.5 13h1q87 0 151.5 -56.5t67.5 -120.5q2 -28 22 -40
q23 -16 47 -7q33 11 65 11q2 0 8.5 -0.5t10.5 -0.5q51 -5 84 -41q40 -39 40 -91q0 -30 -10 -55t-24 -39.5t-32.5 -25.5t-30.5 -15t-22 -7h-5v-1h-2v1h-6h-201h-7v-1q-20 -2 -33 -16.5t-13 -36.5q0 -19 13.5 -34t32.5 -17v-1h7h201h6v1h2v-1h13q1 0 4.5 0.5t5.5 0.5
q24 4 49.5 15t54.5 31t51.5 47t37.5 67t15 87q0 45 -19 89t-51 76zM513 221q9 -14 27 -14q10 0 17 6l19 12v-19q0 -13 8.5 -21.5t21.5 -8.5t22 8.5t9 21.5v18l16 -10q8 -5 17 -5q14 0 26 15q6 11 3 23t-14 19l-25 17l24 15q11 7 13 20t-5 22q-7 12 -19.5 14.5t-22.5 -4.5
l-13 -9v16q0 13 -9 21t-22 8t-21.5 -8t-8.5 -21v-21l-16 10q-10 8 -23.5 5t-20.5 -14q-5 -10 -2 -23.5t13 -19.5l22 -13l-28 -18q-9 -7 -12 -19t4 -23zM701 -19l-39 27l38 23q10 7 12.5 20.5t-4.5 23.5q-7 11 -20 13.5t-24 -5.5l-24 -16v30q0 13 -9 22.5t-23 9.5
q-12 0 -21 -9.5t-9 -22.5v-35l-29 19q-11 6 -23.5 3.5t-18.5 -12.5q-7 -11 -4 -24.5t13 -19.5l34 -21l-40 -29q-11 -7 -13 -18.5t5 -22.5q7 -13 23 -13q14 0 19 6l34 21v-36q0 -13 9 -22t21 -9q14 0 23 9t9 22v34l29 -18q8 -5 15 -5q20 0 28 14q7 10 4 22.5t-15 18.5z
M947 16l-26 15l24 16q7 6 9.5 17t-2.5 18q-6 10 -16.5 11.5t-19.5 -4.5l-13 -8v15q0 12 -7.5 19t-18.5 7t-18 -7t-7 -19v-19l-17 11q-8 5 -19 2.5t-16 -11.5t-3 -20t11 -15l21 -14l-25 -18q-9 -5 -11.5 -15.5t3.5 -19.5q9 -11 22 -11q8 0 14 4l20 14v-21q0 -10 7.5 -18
t17.5 -8t18 8t8 18v19l16 -10q2 -3 12 -3q16 0 23 10q6 10 3.5 20t-10.5 17zM399 16l-25 15l24 16q9 6 11.5 17t-3.5 18q-7 10 -17.5 11.5t-19.5 -4.5l-15 -8v15q0 12 -7 19t-17 7q-11 0 -19 -7t-8 -19v-19l-15 11q-9 5 -19 2.5t-15 -11.5q-6 -9 -4 -20t11 -15l21 -14
l-26 -18q-9 -5 -11 -15.5t5 -19.5q8 -11 20 -11q6 0 14 4l19 14v-21q0 -10 8 -18t19 -8q10 0 17 8t7 18v19l18 -10q4 -3 13 -3q15 0 23 10q6 10 3.5 20.5t-12.5 16.5z" />
    <glyph glyph-name="uniE629" unicode="&#xe629;" horiz-adv-x="1025" 
d="M990 538q8 23 -2.5 44t-32.5 28q-22 9 -42.5 -2t-28.5 -34q-23 -67 -66 -124.5t-94 -97.5t-116.5 -72.5t-123.5 -52t-126 -34t-114 -21t-96 -10t-64.5 -4t-26.5 -0.5h-1q-23 0 -39.5 -16.5t-16.5 -39.5q-1 -24 15.5 -40.5t40.5 -16.5h7q198 0 392 54q211 59 347.5 170.5
t187.5 268.5v0zM435 514q31 0 52 21t21 52v20q0 31 -21 52.5t-52 21.5q-29 0 -50 -22t-21 -52v-20q0 -30 21 -51.5t50 -21.5v0zM822 165q-29 0 -50.5 -21.5t-21.5 -51.5v-22q0 -30 21.5 -51.5t50.5 -21.5q30 0 51.5 21.5t21.5 51.5v22q0 30 -21.5 51.5t-51.5 21.5v0z
M968 303q-23 0 -40 -17.5t-17 -40.5v-10q0 -23 16.5 -40t40.5 -17t40 16.5t16 40.5v10q0 23 -16.5 40.5t-39.5 17.5v0zM616 65q-18 0 -32.5 -14t-14.5 -32v-12q0 -19 14.5 -32.5t32.5 -13.5q19 0 33 13.5t14 32.5v12q0 19 -14 32.5t-33 13.5v0zM575 724q15 0 25.5 10.5
t10.5 25.5v11q0 16 -10.5 26t-25.5 10t-25.5 -10.5t-10.5 -25.5v-11q0 -15 10.5 -25.5t25.5 -10.5v0zM274 541q15 0 26 10.5t11 24.5v12q0 14 -11.5 25.5t-25.5 11.5q-15 0 -26 -11.5t-11 -25.5v-12q0 -14 11 -24.5t26 -10.5v0zM257 352q23 0 39 16.5t16 40.5v12
q0 24 -16 40.5t-39.5 16.5t-40 -16.5t-16.5 -40.5v-12q0 -24 16.5 -40.5t40.5 -16.5v0zM580 482v-13q0 -14 10.5 -25t25.5 -11t25.5 11t10.5 25v13q0 14 -10.5 25t-25.5 11t-25.5 -11t-10.5 -25v0zM408 303q23 0 40 16t17 39v13q0 22 -17 39t-40 17t-40.5 -17t-17.5 -39v-13
q0 -23 17 -39t41 -16v0zM726 548q30 0 51 21.5t21 52.5v21q0 30 -21 50.5t-51 20.5q-31 0 -52 -20.5t-21 -50.5v-21q0 -32 21 -53t52 -21zM726 548z" />
    <glyph glyph-name="uniE62C" unicode="&#xe62c;" 
d="M1024 334q0 71 -42.5 130t-111.5 86q-18 116 -110 196q-100 88 -237 88q-129 0 -227 -78t-119 -197q-78 -22 -127.5 -84t-49.5 -139q0 -96 72 -164t173 -68q13 0 22 9t9 22t-9 22t-22 9q-75 0 -129 50t-54 120q0 61 42 108t106 58l23 4l3 23q11 104 93 173t193 69
q112 0 195.5 -71.5t92.5 -175.5l2 -22l20 -6q58 -16 93.5 -61t35.5 -101q0 -70 -53.5 -120t-128.5 -50q-13 0 -22 -9t-9 -22t9 -22t22 -9h4h3q99 3 168.5 70.5t69.5 161.5zM454 204h-88q-6 0 -10 4t-4 10t4 10t10 4h88q6 0 10 -4t4 -10t-4 -10t-10 -4v0zM432 166q-8 0 -12 7
l-44 76q-7 12 5 19t19 -5l44 -76q7 -12 -5 -19q-4 -2 -7 -2v0zM388 166q-3 0 -7 2q-12 7 -5 19l44 76q7 12 19 5t5 -19l-44 -76q-4 -7 -12 -7v0zM659 204h-88q-6 0 -10 4t-4 10t4 10t10 4h88q5 0 9.5 -4t4.5 -10t-4.5 -10t-9.5 -4v0zM637 166q-8 0 -12 7l-44 76q-7 12 5 19
t19 -5l44 -76q7 -12 -5 -19q-4 -2 -7 -2v0zM593 166q-4 0 -7 2q-12 7 -5 19l44 76q7 12 19 5t5 -19l-44 -76q-4 -7 -12 -7v0zM369 -14h-120q-8 0 -14 6t-6 14t6 13.5t14 5.5h120q8 0 13.5 -5.5t5.5 -13.5t-5.5 -14t-13.5 -6v0zM339 -66q-11 0 -17 10l-60 104q-4 7 -2 15
t9 11.5t14.5 1.5t11.5 -8l61 -105q3 -7 1 -14.5t-8 -11.5q-5 -3 -10 -3v0zM279 -66q-5 0 -10 3q-7 4 -9 11.5t2 14.5l60 105q4 6 12 8.5t14.5 -1.5t9 -12t-1.5 -15l-61 -104q-5 -10 -16 -10v0zM574 -14h-121q-8 0 -13.5 6t-5.5 14t5.5 13.5t13.5 5.5h121q7 0 13 -5.5
t6 -13.5t-6 -14t-13 -6v0zM543 -66q-11 0 -16 10l-60 104q-4 7 -2 15t9 11.5t14.5 1.5t11.5 -8l60 -105q4 -7 2 -14.5t-9 -11.5q-4 -3 -10 -3v0zM483 -66q-5 0 -9 3q-7 4 -9 11.5t2 14.5l60 105q4 6 11.5 8.5t14.5 -1.5t9 -12t-2 -15l-60 -104q-6 -10 -17 -10v0zM784 -14
h-120q-8 0 -13.5 6t-5.5 14t5.5 13.5t13.5 5.5h120q8 0 13.5 -5.5t5.5 -13.5t-5.5 -14t-13.5 -6v0zM754 -66q-11 0 -17 10l-60 104q-4 7 -2 15t9 11.5t15 1.5t12 -8l60 -105q4 -7 2 -14.5t-9 -11.5q-5 -3 -10 -3v0zM694 -66q-5 0 -10 3q-7 4 -9 11.5t2 14.5l61 105
q4 6 11.5 8.5t14.5 -1.5t9 -12t-2 -15l-60 -104q-6 -10 -17 -10v0zM694 -66z" />
    <glyph glyph-name="uniE62E" unicode="&#xe62e;" 
d="M311 98q-7 0 -12.5 -5.5t-5.5 -12.5v-9q0 -8 5.5 -13.5t12.5 -5.5h48l-24 -41q-4 -7 -2 -14.5t9 -11.5l7 -4q7 -4 14.5 -2t11.5 9l27 41l21 -41q4 -7 11.5 -9t13.5 2l8 4q7 4 9 11.5t-2 14.5l-24 41h47q8 0 13.5 5.5t5.5 13.5v9q0 7 -5.5 12.5t-13.5 5.5h-47l24 42
q4 7 2 14t-9 11l-7 5q-7 4 -14.5 1.5t-11.5 -8.5l-24 -42l-24 42q-4 7 -11.5 9t-13.5 -2l-8 -5q-7 -4 -9 -11.5t2 -13.5l24 -42h-48zM1024 290q0 71 -42.5 130t-111.5 85q-18 117 -110 197q-100 87 -237 87q-129 0 -227 -77.5t-119 -197.5q-78 -21 -127.5 -83t-49.5 -139
q0 -96 72 -164.5t173 -68.5q13 0 22 9.5t9 22.5t-9 22t-22 9q-75 0 -128.5 49.5t-53.5 120.5q0 60 41.5 107t105.5 59l23 4l3 23q11 104 93 173t194 69q111 0 194.5 -72t92.5 -176l2 -21l21 -6q57 -17 92.5 -61.5t35.5 -100.5q0 -70 -53.5 -120t-128.5 -50q-13 0 -22 -9
t-9 -22t9 -22t22 -9h4h3q99 3 168.5 70.5t69.5 161.5zM540 98q-8 0 -13.5 -5.5t-5.5 -12.5v-9q0 -8 5.5 -13.5t13.5 -5.5h47l-24 -41q-4 -7 -1.5 -14.5t8.5 -11.5l8 -4q6 -4 13.5 -2t11.5 9l27 41l21 -41q4 -7 11.5 -9t14.5 2l7 4q7 4 9 11.5t-2 14.5l-24 41h48q7 0 13 5.5
t6 13.5v9q0 7 -6 12.5t-13 5.5h-48l24 42q4 6 2 13.5t-9 11.5l-7 5q-7 4 -14.5 1.5t-11.5 -8.5l-24 -42l-24 42q-4 7 -11.5 9t-13.5 -2l-8 -5q-7 -4 -9 -11.5t2 -13.5l24 -42h-47zM559 124z" />
    <glyph glyph-name="uniE638" unicode="&#xe638;" 
d="M120 602q93 46 183.5 46t183.5 -46q113 -57 227.5 -57t227.5 57q19 9 25.5 28.5t-3 38t-29 25t-37.5 -2.5q-92 -46 -183 -46t-184 46q-113 56 -227.5 56t-227.5 -56q-19 -9 -25.5 -28.5t3 -38t29 -25t37.5 2.5zM898 517q-92 -46 -183 -46t-184 46q-113 56 -227.5 56
t-227.5 -56q-19 -10 -25.5 -29.5t3 -37.5t29 -24.5t37.5 2.5q93 46 183.5 46t183.5 -46q113 -57 227.5 -57t227.5 57q19 9 25.5 28.5t-3 38t-29 25t-37.5 -2.5zM898 343q-92 -46 -183 -46t-184 46q-113 56 -227.5 56t-227.5 -56q-19 -10 -25.5 -29.5t3 -38t29 -25t37.5 3.5
q93 46 183.5 46t183.5 -46q113 -57 227.5 -57t227.5 57q19 9 25.5 28.5t-3 38t-29 25t-37.5 -2.5zM898 169q-92 -47 -183 -47t-184 47q-113 56 -227.5 56t-227.5 -56q-19 -10 -25.5 -29.5t3 -38t29 -25t37.5 3.5q93 46 183.5 46t183.5 -46q113 -57 227.5 -57t227.5 57
q19 9 25.5 28.5t-3 38t-29 25t-37.5 -2.5z" />
    <glyph glyph-name="uniE642" unicode="&#xe642;" 
d="M923 1h-836q-13 0 -22 -9t-9 -22t9 -22t22 -9h836q13 0 22 9t9 22t-9 22t-22 9zM285 286h-102q-12 0 -21 -9t-9 -21.5t9 -21.5t21 -9h102q12 0 21 9t9 21.5t-9 21.5t-21 9zM557 286h-101q-13 0 -22 -9t-9 -21.5t9 -21.5t22 -9h101q13 0 22 9t9 21.5t-9 21.5t-22 9z
M830 286h-101q-13 0 -22 -9t-9 -21.5t9 -21.5t22 -9h101q13 0 22 9t9 21.5t-9 21.5t-22 9zM285 149h-102q-12 0 -21 -9t-9 -21.5t9 -21.5t21 -9h102q12 0 21 9t9 21.5t-9 21.5t-21 9zM557 149h-101q-13 0 -22 -9t-9 -21.5t9 -21.5t22 -9h101q13 0 22 9t9 21.5t-9 21.5t-22 9
zM830 149h-101q-13 0 -22 -9t-9 -21.5t9 -21.5t22 -9h101q13 0 22 9t9 21.5t-9 21.5t-22 9zM92 364h634q96 0 164 68q69 69 69 166t-68.5 165.5t-165.5 68.5t-165.5 -68.5t-68.5 -165.5q0 -13 9 -22t21.5 -9t21.5 9t9 22q0 71 51 121.5t122 50.5t121.5 -50.5t50.5 -121.5
t-50.5 -122t-121.5 -51h-633q-13 0 -22 -9t-9 -21.5t9 -21.5t22 -9z" />
    <glyph glyph-name="uniE64C" unicode="&#xe64c;" horiz-adv-x="1029" 
d="M241 79h-6q-8 3 -12.5 10.5t-2.5 16.5l27 106q3 9 10.5 13.5t16.5 2.5q8 -2 12.5 -10t2.5 -16l-27 -107q-5 -16 -21 -16v0zM241 79zM375 79h-5q-9 3 -13.5 10.5t-1.5 16.5l27 106q2 9 10 13.5t16 2.5q9 -2 13.5 -10t2.5 -16l-28 -107q-4 -16 -21 -16v0zM375 79zM510 79
h-5q-9 3 -13.5 10.5t-2.5 16.5l28 106q2 9 9.5 13.5t16.5 2.5t13.5 -10t2.5 -16l-28 -107q-4 -16 -21 -16v0zM510 79zM645 79h-5q-9 3 -13.5 10.5t-1.5 16.5l27 106q2 9 10 13.5t16 2.5q9 -2 13.5 -10t2.5 -16l-28 -107q-4 -16 -21 -16v0zM645 79zM817 304q-8 0 -14.5 6.5
t-6.5 15t6.5 15t14.5 6.5q57 0 97 40t40 96.5t-40 97t-97 40.5h-19q-9 0 -15 6t-6 15v19q0 68 -48 115.5t-115 47.5q-41 0 -78 -20q-8 -4 -16.5 -1.5t-13 10t-2 16.5t10.5 13q47 25 99 25q85 0 145 -59.5t61 -144.5q73 0 125 -52.5t52 -126.5t-52.5 -127t-127.5 -53v0z
M817 304zM626 249h-407q-75 0 -127.5 53t-52.5 127t52 127t126 53q0 85 60.5 144.5t145 59.5t144.5 -59.5t61 -144.5q74 0 126 -53t52 -127t-52.5 -127t-127.5 -53v0zM219 566q-57 0 -97 -40t-40 -96.5t40 -97t97 -40.5h407q57 0 97 40.5t40 97t-40 96.5t-97 40h-19
q-9 0 -15 6.5t-6 14.5v20q0 67 -48 115t-115.5 48t-115 -48t-47.5 -115v-20q0 -8 -6 -14.5t-15 -6.5h-20v0zM219 566zM269 -94q-7 0 -12 2q-15 5 -22 18.5t-2 28.5l18 57q5 14 18.5 21.5t28.5 2.5t22 -18.5t2 -28.5l-18 -57q-4 -12 -14 -19t-21 -7v0zM269 -94zM422 -94
q-7 0 -12 2q-15 5 -22 18.5t-2 28.5l18 57q5 14 18.5 21.5t28.5 2.5t22 -18.5t2 -28.5l-18 -57q-4 -12 -14 -19t-21 -7v0zM422 -94zM574 -94q-6 0 -11 2q-15 5 -22 18.5t-3 28.5l18 57q5 14 18.5 21.5t28.5 2.5t22 -18.5t3 -28.5l-18 -57q-4 -12 -14 -19t-22 -7v0zM574 -94z
" />
    <glyph glyph-name="uniE64F" unicode="&#xe64f;" horiz-adv-x="1452" 
d="M1149 404q-30 0 -82.5 25.5t-109 51t-96.5 25.5q-36 0 -77.5 -13t-73 -29t-72.5 -29.5t-78 -13.5t-78 13.5t-71 29.5t-65 29t-61 13q-97 0 -184 -49l-3 -1v-34q10 6 26 14t64 22.5t93 14.5q26 0 61 -13.5t65 -29.5t71 -29t78 -13t79 13t73.5 29t73.5 29.5t79 13.5
q40 0 96.5 -25.5t109 -51t82.5 -25.5q55 0 105.5 12.5t74.5 25.5l24 12v35q-9 -6 -26 -14.5t-70 -23t-108 -14.5zM243 761q17 0 29.5 12.5t12.5 30t-12.5 30t-30 12.5t-30 -12.5t-12.5 -30t12.5 -30t30.5 -12.5zM497 591q17 0 29.5 12.5t12.5 30.5t-12.5 30t-30 12t-30 -12
t-12.5 -30q1 -18 13 -30.5t30 -12.5zM768 761q18 0 30 12.5t12 30t-12 30t-30 12.5t-30 -12.5t-12 -30t12 -30t30 -12.5zM1022 591q18 0 30.5 12.5t12.5 30.5t-12.5 30t-30 12t-30 -12t-12.5 -30t12.5 -30.5t29.5 -12.5zM1276 761q18 0 30.5 12.5t12.5 30t-12.5 30t-30 12.5
t-30 -12.5t-12.5 -30t12.5 -30t29.5 -12.5zM861 269q-36 0 -77.5 -13t-73 -29t-72.5 -29.5t-78 -13.5t-78 13.5t-71 29.5t-65 29t-61 13q-97 0 -184 -49l-3 -1v-34q10 6 26 14t64 22.5t93 14.5q26 0 61 -13.5t65 -29.5t71 -29t78 -13t79 13t73.5 29t73.5 29.5t79 13.5
q40 0 96.5 -25.5t109 -51t82.5 -25.5q55 0 105.5 12.5t74.5 25.5l24 12v34q-9 -6 -26 -14t-70.5 -22.5t-107.5 -14.5q-30 0 -82.5 25.5t-109 51t-96.5 25.5zM861 66q-36 0 -77.5 -13.5t-73 -29.5t-72.5 -29t-78 -13t-78 13t-71 29t-65 29.5t-61 13.5q-97 0 -184 -50l-3 -1
v-34q10 6 26 14.5t64 22.5t93 14q26 0 61 -13.5t65 -29.5t71 -29t78 -13t79 13t73.5 29t73.5 29.5t79 13.5q40 0 96.5 -25.5t109 -51t82.5 -25.5q55 0 105.5 12.5t74.5 25.5l24 13v33q-9 -5 -26 -13.5t-70.5 -22.5t-107.5 -14q-29 0 -82 25.5t-109.5 51t-96.5 25.5zM861 66z
" />
    <glyph glyph-name="uniE650" unicode="&#xe650;" horiz-adv-x="1205" 
d="M1037 265q-57 -56 -136.5 -56t-134.5 56l-130 136l130 136q55 57 135 57q79 0 136 -57q56 -56 56 -136t-56 -136v0zM433 265q-56 -56 -135.5 -56t-135.5 56t-56 136t56 136q56 57 135 57q80 0 135 -56l130 -137zM1074 574q-72 72 -174 72q-101 0 -174 -72l-127 -134
l-128 134q-72 72 -174 72q-101 0 -173 -72q-72 -71 -72 -172.5t71.5 -173.5t173.5 -72q101 0 174 73l128 134l128 -135q72 -72 174 -72q101 0 173 72t71.5 173.5t-71.5 172.5v0zM1074 574zM281.5 778q16.5 0 28 11.5t11.5 27.5q0 17 -11.5 28.5t-28 11.5t-28.5 -11.5
t-12 -28.5q1 -16 12.5 -27.5t28 -11.5zM599 698q16 0 28 11.5t12 28.5q0 16 -12 28t-28 12t-28 -12t-12 -28q0 -17 12 -28.5t28 -11.5zM917 778q16 0 28 11.5t12 27.5q0 17 -12 28.5t-28 11.5t-28 -11.5t-12 -28.5q0 -16 11.5 -27.5t28.5 -11.5zM916.5 25q-16.5 0 -28 -11.5
t-11.5 -28.5q0 -16 12 -28t28 -12t28 12t12 28q-1 17 -12.5 28.5t-28 11.5zM599 104q-16 0 -28 -11.5t-12 -27.5q0 -17 12 -28.5t28 -11.5t28 11.5t12 28t-12 28t-28 11.5zM281 25q-16 0 -28 -11.5t-12 -28.5q0 -16 12 -28t28.5 -12t28 12t11.5 28q0 17 -11.5 28.5
t-28.5 11.5z" />
    <glyph glyph-name="uniE651" unicode="&#xe651;" 
d="M512 115q-111 0 -190 79t-79 190t79 190t190 79t190 -79t79 -190t-79 -190t-190 -79zM512 607q-93 0 -158.5 -65.5t-65.5 -158t65.5 -158t158 -65.5t158 65.5t65.5 158t-65.5 158t-157.5 65.5zM512 607zM268 605q-9 0 -16 7l-83 82q-6 7 -6 16.5t6.5 16t16 6.5t15.5 -7
l83 -82q6 -7 6 -16.5t-6 -15.5q-6 -7 -16 -7zM268 605zM838 35q-9 0 -16 7l-82 82q-7 7 -7 16.5t6.5 16t16 6.5t16.5 -7l82 -82q7 -7 7 -16.5t-6.5 -16t-16.5 -6.5zM838 35zM756 605q-10 0 -16.5 6.5t-6.5 16t7 16.5l82 82q7 7 16.5 7t16 -6.5t6.5 -16t-7 -16.5l-82 -82
q-7 -7 -16 -7zM756 605zM186 35q-10 0 -16.5 6.5t-6.5 16t7 16.5l82 82q7 7 16.5 7t16 -6.5t6.5 -16t-7 -16.5l-82 -82q-7 -7 -16 -7zM186 35zM167 361h-117q-9 0 -16 7t-7 16.5t7 16t16 6.5h117q10 0 16.5 -6.5t6.5 -16t-6.5 -16.5t-16.5 -7zM167 361zM973 361h-117
q-9 0 -15.5 7t-6.5 16.5t6.5 16t15.5 6.5h117q10 0 16.5 -6.5t6.5 -16t-6.5 -16.5t-16.5 -7zM973 361zM512 706q-10 0 -16.5 6.5t-6.5 16.5v117q0 9 6.5 16t16 7t16.5 -7t7 -16v-117q0 -10 -7 -16.5t-16 -6.5zM512 706zM512 -100q-10 0 -16.5 6.5t-6.5 16.5v117
q0 9 6.5 15.5t16 6.5t16.5 -6.5t7 -15.5v-117q0 -10 -7 -16.5t-16 -6.5zM512 -100z" />
    <glyph glyph-name="uniE65A" unicode="&#xe65a;" horiz-adv-x="1214" 
d="M948 102h-44v30l37 -1q82 0 140.5 58.5t58.5 141t-58.5 141t-140.5 58.5q-81 0 -139 -56q-10 15 -19 23q65 61 153 62q-30 116 -125 191t-218 75q-96 0 -177.5 -47.5t-129 -129t-47.5 -177.5v-30h-15q-62 -3 -104.5 -48t-42.5 -107t43 -107t104 -48h44v-30h-37
q-76 0 -130 54t-54 130q0 71 46.5 123t116.5 60v2q0 104 51 192.5t139.5 140t193.5 51.5q135 0 239 -84t134 -213q86 -10 144.5 -75t58.5 -152q0 -93 -65 -159.5t-157 -68.5zM376 194l21 21l72 -69h81l-61 103h-88v30h71l-39 66l26 15l46 -78l31 63l26 -13l-39 -80l51 -88
l57 96l-36 72l27 13l27 -55l37 63l25 -15l-34 -59h50v-30h-68l-62 -103h96l73 73l19 -19l-52 -54h97v-29h-82l38 -39l-20 -20l-57 58h-108l57 -96l83 -7v-30l-69 6l38 -57l-26 -15l-39 66h-1l-22 -63l-28 9l30 89l-51 87l-54 -90l29 -86l-28 -9l-21 61l-42 -72l-26 15l44 74
h-74v30h89l55 89h-79l-69 -70l-21 21l49 48h-97v30h97zM376 194z" />
    <glyph glyph-name="uniE65B" unicode="&#xe65b;" 
d="M263 76h-5q-9 3 -13 10t-2 16l27 104q2 8 9.5 12.5t16 2.5t12.5 -9.5t2 -15.5l-27 -105q-3 -15 -20 -15v0zM263 76zM395 76h-5q-9 3 -13.5 10t-2.5 16l27 104q2 8 9.5 12.5t16 2.5t13 -9.5t2.5 -15.5l-27 -105q-4 -15 -20 -15v0zM395 76zM527 76h-6q-8 3 -12.5 10
t-2.5 16l27 104q2 8 9.5 12.5t16 2.5t13 -9.5t1.5 -15.5l-26 -105q-4 -15 -20 -15v0zM527 76zM797 296q-9 0 -15 6t-6 14.5t6 15t15 6.5q55 0 94 39t39 94.5t-39 94.5t-94 39h-20q-8 0 -14 6t-6 15v19q0 66 -46.5 112.5t-112.5 46.5q-41 0 -76 -19q-8 -4 -16.5 -1.5
t-12.5 10t-1.5 16t10.5 12.5q45 24 96 24q82 0 141 -58t59 -141q72 0 123 -51.5t51 -123.5q0 -73 -51.5 -124.5t-123.5 -51.5v0zM797 296zM610 242h-397q-73 0 -124.5 51.5t-51.5 123.5q0 73 51 124t123 52q0 82 59 140.5t141.5 58.5t141 -58.5t59.5 -140.5q72 -1 122.5 -52
t50.5 -124q1 -72 -50.5 -123.5t-124.5 -51.5v0zM213 551q-56 0 -95 -39t-39 -94.5t39 -94.5t95 -39h397q55 0 94.5 39t39.5 94.5t-39 94.5t-95 39h-19q-9 0 -15 6t-6 15v19q0 66 -46.5 112.5t-112.5 46.5q-65 0 -112 -46.5t-47 -112.5v-19q0 -9 -6 -15t-14 -6h-19v0z
M213 551zM290 -92q-6 0 -10 1q-15 5 -21.5 18.5t-2.5 27.5l18 55q4 15 17.5 22t27.5 2q15 -5 22 -18t2 -27l-17 -56q-9 -25 -36 -25v0zM290 -92zM440 -92q-7 0 -11 1q-15 5 -21.5 18.5t-2.5 27.5l18 55q5 15 18 22t28 2q14 -5 21 -18t2 -27l-17 -56q-9 -25 -35 -25v0z
M440 -92z" />
    <glyph glyph-name="uniE660" unicode="&#xe660;" 
d="M755 239q-7 0 -12.5 5t-5.5 12.5t5.5 12.5t12.5 5q46 0 78.5 32.5t32.5 78.5t-32.5 78.5t-78.5 32.5h-16q-7 0 -12 5.5t-5 12.5v16q0 54 -39 93t-94 39q-33 0 -63 -16q-6 -4 -13 -2t-10.5 8.5t-1.5 13.5t8 10q38 21 80 21q69 0 118 -48.5t49 -117.5q60 0 102.5 -43
t42.5 -103t-43 -103t-103 -43zM600 194h-331q-60 0 -103 43t-43 103t42.5 103t102.5 43q0 69 49 117.5t117.5 48.5t117.5 -48.5t50 -117.5q59 0 101.5 -43t42.5 -103t-43 -103t-103 -43zM269 452q-46 0 -78.5 -33t-32.5 -79t32.5 -78.5t78.5 -32.5h331q46 0 78.5 32.5
t32.5 78.5t-32.5 79t-78.5 33h-16q-7 0 -12 5t-5 12v16q0 55 -39 93.5t-93.5 38.5t-93.5 -38.5t-39 -93.5v-16q0 -7 -5 -12t-12 -5h-16zM269 452z" />
    <glyph glyph-name="uniE67C" unicode="&#xe67c;" 
d="M821 521q-42 104 -135.5 168t-208.5 64q-101 0 -186.5 -50t-135 -135.5t-49.5 -185.5q0 -12 1 -26q-47 -23 -75 -67.5t-28 -98.5q0 -72 48 -125t118 -60v-1h589q109 0 185.5 77t76.5 185q0 92 -56.5 163t-143.5 92zM780 56q-8 -1 -15 -1h-576q-9 0 -19 2q-49 7 -82 44.5
t-33 88.5q0 33 15 61.5t41 47.5v0l1 1h1q10 7 21 12q29 24 22 72h1q1 132 94.5 225t225.5 93q92 0 168 -47.5t117 -126.5v0q10 -20 17 -40q8 -8 18 -14q74 -13 123.5 -71.5t49.5 -136.5q0 -81 -55 -141.5t-135 -68.5zM527 -55.5q-9 5.5 -19.5 2.5t-15.5 -12l-35 -61
q-6 -9 -3 -19t12 -15.5t19.5 -2.5t15.5 12l35 61q5 9 2.5 19t-11.5 15.5z" />
    <glyph glyph-name="uniE6DE" unicode="&#xe6de;" 
d="M231 153q0 6 -4 9.5t-9 3.5h-26q-5 0 -9 -3.5t-4 -9.5v-76q0 -6 4 -10t9 -4h26q5 0 9 4t4 10v76zM461 153q0 6 -3.5 9.5t-9.5 3.5h-25q-6 0 -9.5 -3.5t-3.5 -9.5v-76q0 -6 3.5 -10t9.5 -4h25q5 0 9 4t4 10v76zM384 115q0 5 -3.5 9t-9.5 4h-25q-6 0 -9.5 -4t-3.5 -9v-77
q0 -5 3.5 -9t9.5 -4h25q6 0 9.5 4t3.5 9v77zM307 192q0 5 -3.5 9t-8.5 4h-26q-5 0 -9 -4t-4 -9v-77q0 -5 4 -9t9 -4h26q5 0 8.5 4t3.5 9v77zM538 89q0 6 -4 9.5t-9 3.5h-26q-5 0 -8.5 -3.5t-3.5 -9.5v-76q0 -6 3.5 -9.5t8.5 -3.5h26q5 0 9 3.5t4 9.5v76zM845 153
q0 6 -3.5 9.5t-9.5 3.5h-25q-6 0 -9.5 -3.5t-3.5 -9.5v-76q0 -6 3.5 -10t9.5 -4h25q5 0 9 4t4 10v76zM615 153q0 6 -4 9.5t-9 3.5h-26q-5 0 -9 -3.5t-4 -9.5v-76q0 -6 4 -10t9 -4h26q5 0 9 4t4 10v76zM800 554q11 74 -58 129q-37 29 -82 29q-39 0 -76 -21q-12 18 -28 34
t-50 33t-72 17h-7q-45 2 -86 -15t-71 -50q-53 -58 -49 -143q-14 -6 -28 -15.5t-32.5 -27.5t-30 -48.5t-11.5 -69.5q1 -40 16 -72.5t38.5 -51.5t49.5 -29.5t50 -10.5h474h1q6 1 17 3.5t36.5 13.5t45.5 27t36.5 48t16.5 73q0 37 -11 65.5t-28.5 44.5t-31.5 24.5t-29 12.5z
M265 534q8 4 8 13q-7 147 130 174q13 3 25 3q24 0 46.5 -9t41 -25.5t28.5 -26.5t23 -27q5 -7 14 -4q7 3 20 9q34 16 54 16q17 0 35 -8q23 -11 37.5 -28t19 -31.5t4.5 -31.5t-1.5 -23.5t-2.5 -11.5q-2 -6 2 -11t11 -5q5 0 12 -1t21 -6.5t25 -15.5t20 -30t11 -47
q0 -31 -14.5 -54.5t-33.5 -35.5t-34 -17.5t-22 -5.5h-472q-33 0 -66.5 32.5t-35.5 80.5q-4 83 94 127zM691 115q0 5 -3.5 9t-8.5 4h-26q-5 0 -9 -4t-4 -9v-77q0 -5 4 -9t9 -4h26q5 0 8.5 4t3.5 9v77zM768 192q0 5 -3.5 9t-9.5 4h-25q-6 0 -9.5 -4t-3.5 -9v-77q0 -5 3.5 -9
t9.5 -4h25q6 0 9.5 4t3.5 9v77z" />
    <glyph glyph-name="uniE6F2" unicode="&#xe6f2;" 
d="M914 500q-38 38 -91 46q-5 97 -76.5 164.5t-169.5 67.5q-71 0 -130.5 -37.5t-90.5 -100.5q-28 19 -63 19q-46 0 -78.5 -32.5t-32.5 -78.5v-5q-51 -14 -84 -57t-33 -97q0 -67 47 -113.5t113 -46.5h104v-270q0 -9 6 -15t14.5 -6t14.5 6t6 15v270h189v-270q0 -9 6 -15
t14.5 -6t14.5 6t6 15v270h200q65 0 112 46q47 47 47 113q0 65 -45 112zM883 304q-35 -34 -83 -34h-575q-49 0 -84 34.5t-35 84.5q0 44 29 77.5t73 39.5q9 1 14.5 8.5t2.5 16.5q-2 9 -2 17q0 29 20.5 49.5t49.5 20.5q34 0 55 -26q7 -9 19 -7t16 13q21 63 74.5 101t119.5 38
q85 0 145.5 -60t60.5 -145v-3v-1q-1 -9 5 -15t15 -6q48 -2 81.5 -36.5t33.5 -82.5q0 -49 -35 -84zM464.5 195q-8.5 0 -14.5 -6t-6 -15v-215q0 -9 6 -15t14.5 -6t14.5 6t6 15v215q0 9 -6 15t-14.5 6zM694.5 195q-8.5 0 -15 -6t-6.5 -15v-215q0 -9 6.5 -15t15 -6t14.5 6t6 15
v215q0 9 -6 15t-14.5 6zM234.5 133q-8.5 0 -14.5 -6t-6 -15v-91q0 -9 6 -15t14.5 -6t14.5 6t6 15v91q0 9 -6 15t-14.5 6zM809 133q-9 0 -15 -6t-6 -15v-91q0 -9 6 -15t15 -6t15 6t6 15v91q0 9 -6 15t-15 6z" />
    <glyph glyph-name="uniE6F3" unicode="&#xe6f3;" 
d="M282 735q5 -13 18 -13q4 0 8 2q7 3 10.5 10.5t0.5 15.5l-27 65q-3 8 -10.5 11t-15.5 0t-11 -10.5t0 -15.5zM79 606l65 -28q3 -1 7 -1q14 0 19 12q3 8 0 15.5t-11 10.5l-65 28q-8 3 -15.5 0t-10.5 -11t0 -15.5t11 -10.5zM157 372q8 3 11.5 10.5t0 15.5t-11 11t-15.5 0
l-65 -27q-8 -3 -11 -10.5t0 -15.5q5 -12 19 -12q3 0 7 1zM651 574q4 0 8 2l63 25q8 3 11 11t0 15.5t-10.5 11t-15.5 -0.5l-63 -25q-8 -3 -11 -11t0 -15q5 -13 18 -13zM497 722q3 -2 8 -2q13 0 18 13l27 64q4 8 0.5 15.5t-11 11t-15 0.5t-10.5 -11l-28 -65q-3 -8 0 -15.5
t11 -10.5zM917 202q-37 38 -88 45q-6 92 -72 157t-158 69q1 9 1 17q0 83 -59 141.5t-141.5 58.5t-141 -58.5t-58.5 -141.5q0 -87 63 -146q-26 -13 -41.5 -38.5t-15.5 -56.5v-5q-50 -14 -82.5 -55.5t-32.5 -94.5q0 -64 46 -109.5t110 -45.5h559q63 0 109 45q46 46 46 110
q0 63 -44 108zM240 490q0 66 47 113t113 47t113 -47t47 -113q0 -9 -2 -19q-59 -8 -108 -43t-76 -89q-27 18 -60 18h-3q-33 22 -52 57.5t-19 75.5zM887 13q-34 -34 -81 -34h-559q-48 0 -82 34t-34 81q0 43 28.5 76t71.5 39q9 1 14 8t3 16q-2 8 -2 16q0 26 16.5 45t41.5 22h3
t6 1h1q32 0 52 -25q8 -9 19.5 -7t15.5 13q21 61 73 98t116 37q82 0 140.5 -58.5t58.5 -141.5v-2v-2q0 -8 5.5 -14t14.5 -6q46 -1 79 -34.5t33 -80.5q0 -48 -34 -81z" />
    <glyph glyph-name="uniE716" unicode="&#xe716;" 
d="M762 138q-8 0 -13 5.5t-5 12.5t5 12.5t13 5.5q47 0 80.5 33.5t33.5 80.5t-33.5 80.5t-80.5 33.5h-17q-7 0 -12.5 5.5t-5.5 12.5v17q0 56 -39.5 95.5t-95.5 39.5q-35 0 -65 -16q-7 -4 -14 -2t-10.5 8.5t-1.5 14t8 10.5q39 21 83 21q70 0 120.5 -49.5t50.5 -120.5
q62 0 105.5 -44t43.5 -106t-44 -106t-106 -44zM602 92h-340q-62 0 -106 44t-44 106t43.5 106t105.5 44q0 71 50.5 120.5t121 49.5t120.5 -49.5t51 -120.5q62 0 105 -44t43 -106t-44 -106t-106 -44zM262 356q-47 0 -80.5 -33.5t-33.5 -80.5t33.5 -80.5t80.5 -33.5h340
q48 0 81.5 33.5t33.5 80.5t-33.5 80.5t-81.5 33.5h-16q-7 0 -12.5 5.5t-5.5 12.5v17q0 56 -39.5 95.5t-96 39.5t-96 -39.5t-39.5 -95.5v-17q0 -7 -5.5 -12.5t-12.5 -5.5h-17zM318 8q0 -14 -8.5 -22t-21.5 -8t-21.5 8t-8.5 22q0 11 7 26.5t14 26t9 10.5t9 -10.5t14 -26
t7 -26.5zM462 8q0 -14 -8.5 -22t-21 -8t-21 8t-8.5 22q0 11 6.5 26.5t13.5 26t9 10.5t9.5 -10.5t14 -26t6.5 -26.5zM607 8q0 -14 -9 -22t-21.5 -8t-21 8t-8.5 22q0 11 6.5 26.5t14 26t9.5 10.5t9 -10.5t14 -26t7 -26.5z" />
    <glyph glyph-name="uniE726" unicode="&#xe726;" 
d="M808 451q6 92 -52 162q-38 45 -98 72t-125 27q-98 0 -175 -60.5t-99 -152.5q-81 -2 -138 -58.5t-57 -135.5q0 -60 36 -110l35 36q-21 34 -21 74q0 60 44 102.5t106 42.5q6 0 14 -1l23 -2l3 23q12 82 77.5 137t151.5 55q54 0 103.5 -22t81.5 -59q53 -64 37 -152l-7 -36
l36 7q7 2 15 2q39 0 75 -27.5t36 -72.5q0 -38 -19.5 -70.5t-51.5 -51.5l12 -49q50 24 79.5 70t29.5 101q0 62 -46.5 104t-105.5 45zM438 499l-311 -338h141v-273l280 359h-110v252zM446 197l-129 -165v178h-77l148 162v-175h58zM690 304.5q-10 3.5 -19 -1t-13 -14.5
l-91 -257q-4 -10 0.5 -19.5t14.5 -12.5q4 -1 8 -1q18 0 24 16l91 258q3 9 -1 18.5t-14 13zM497.5 97q-9.5 4 -19 0t-12.5 -14l-42 -102q-4 -9 0.5 -18.5t13.5 -13.5q4 -2 9 -2q17 0 23 15l42 103q4 9 -0.5 18.5t-14 13.5zM790.5 252.5q-9.5 3.5 -19 -1t-12.5 -13.5l-92 -258
q-3 -10 1.5 -19t13.5 -13q4 -1 9 -1q17 0 23 17l92 257q3 10 -1.5 19t-14 12.5z" />
    <glyph glyph-name="uniE72E" unicode="&#xe72e;" 
d="M808 442q6 92 -52 161q-38 46 -98 73t-125 27q-98 0 -175 -60.5t-99 -152.5q-81 -2 -138 -58.5t-57 -135.5q0 -60 36 -110l35 36q-21 34 -21 74q0 59 44 101.5t106 42.5h14l23 -2l3 23q12 82 77.5 137t151.5 55q54 0 103.5 -22t81.5 -60q53 -63 37 -151l-7 -36l36 7
q7 2 15 2q39 0 75 -28t36 -72q0 -38 -19.5 -70.5t-51.5 -51.5l12 -49q50 24 79.5 70t29.5 101q0 62 -46.5 104t-105.5 45zM562 186l-35 35l-85 -85h-38v35l85 85l-35 35l-50 -49v83h-49v-83l-49 50l-36 -35l85 -85v-36h-33l-85 85l-35 -35l50 -50h-86v-50h86l-49 -49l35 -35
l84 84h33v-28l-85 -86l36 -35l49 50v-89h49v90l50 -49l35 35l-85 84v28h37l85 -84l35 35l-49 49h81v50h-81zM647 256h50v-103h-50v103zM766 205h51v-103h-51v103zM766 50h51v-103h-51v103zM647 102h50v-104h-50v104z" />
    <glyph glyph-name="uniE8BE" unicode="&#xe8be;" horiz-adv-x="1025" 
d="M881 590q3 19 3 30q0 104 -75.5 177.5t-181.5 73.5q-67 0 -126 -32.5t-93 -88.5q-44 30 -98 30q-72 0 -123.5 -50t-51.5 -121q0 -16 3 -31q-62 -22 -100 -75t-38 -119q0 -83 60.5 -139.5t150.5 -56.5h602q88 0 149.5 60.5t61.5 145.5q0 66 -40 120.5t-103 75.5zM813 235
h-602q-70 0 -116.5 43t-46.5 106q0 56 35 99t90 56q10 3 15.5 12t1.5 19q-6 19 -6 39q0 51 36.5 87t89.5 36q51 0 88 -35q9 -9 21.5 -6.5t17.5 13.5q25 54 77 87t113 33q86 0 147 -60t61 -144q0 -15 -4 -44q-1 -1 -1 -3q0 -9 6 -15.5t14 -8.5q55 -12 90.5 -55.5t35.5 -99.5
q0 -65 -47.5 -112t-115.5 -47zM282 90.5q-10 1.5 -18.5 -4.5t-9.5 -16l-10 -73q-1 -10 5 -18t16 -9.5t18 5t9 16.5l10 72q2 10 -4 18t-16 9.5zM402 90.5q-10 1.5 -18 -4.5t-9 -16l-20 -145q-2 -10 4.5 -18t16.5 -9.5t18 4.5t9 16l20 145q2 10 -4.5 18t-16.5 9.5zM523 90.5
q-10 1.5 -18 -4.5t-9 -16l-20 -145q-2 -10 4 -18t16 -9.5t18 4.5t10 16l20 145q1 10 -5 18t-16 9.5zM644 90.5q-10 1.5 -18 -4.5t-10 -16l-20 -145q-1 -10 5 -18t16 -9.5t18 4.5t10 16l20 145q1 10 -5 18t-16 9.5zM765 90.5q-10 1.5 -18.5 -4.5t-9.5 -16l-10 -73
q-1 -10 5 -18t16 -9.5t18 5t9 16.5l10 72q2 10 -4 18t-16 9.5z" />
    <glyph glyph-name="uniE8C8" unicode="&#xe8c8;" horiz-adv-x="1025" 
d="M881 578q3 20 3 30q0 104 -75.5 177.5t-181.5 73.5q-67 0 -126 -32t-93 -88q-44 29 -98 29q-72 0 -123.5 -50t-51.5 -120q0 -16 3 -31q-62 -22 -100 -75t-38 -119q0 -84 60.5 -140t150.5 -56h602q88 0 149.5 60.5t61.5 145.5q0 66 -40 120t-103 75zM813 224h-602
q-70 0 -116.5 42.5t-46.5 106.5q0 56 35 99t90 56q10 2 15.5 11t1.5 19q-6 19 -6 40q0 51 36.5 87t89.5 36q51 0 88 -36q9 -8 21.5 -6t17.5 13q25 55 77 87.5t113 32.5q86 0 147 -59.5t61 -144.5q0 -15 -4 -43q-1 -2 -1 -4q0 -8 6 -15t14 -8q55 -12 90.5 -56t35.5 -99
q0 -66 -47.5 -112.5t-115.5 -46.5zM354 128q-26 -25 -41.5 -53t-17.5 -44l-2 -16q0 -24 18 -41t43 -17t42.5 17t17.5 41q0 5 -2 17t-17 41.5t-41 54.5zM671 79q-26 -24 -41.5 -52.5t-17.5 -44.5l-2 -16q0 -24 17.5 -40.5t43 -16.5t43 16.5t17.5 40.5q0 7 -2 18t-17 41
t-41 54z" />
  </font>
</defs>
</svg>
